# xmcd CD database file
#
# Track frame offsets:
#	150
#	10557
#	20837
#	33352
#	47385
#	58442
#	68707
#	84050
#	99912
#	111800
#	126752
#	144125
#
# Disc length: 2080 seconds
#
# Revision: 0
# Processed by: cddbd v1.5PL3 Copyright (c) Steve Scherf et al.
# Submitted via: CDex 1.51
#
DISCID=8c081e0c
DTITLE=The Travellers - JUMP&ROLL
DYEAR=2001
DGENRE=Jazz
TTITLE0=FIVE GUYS NAMED MOE
TTITLE1=ZIG ZAG ZIGGIN
TTITLE2=YEAH YEAH YEAH
TTITLE3=YOUR CASH AINT' NOTHIN BUT TRASH
TTITLE4=BIM BAM
TTITLE5=JUMP&ROLL
TTITLE6=THAT OLD BLACK MAGIC
TTITLE7=IT'S A GREAT GREAT PLEASURE
TTITLE8=CRAWFISHIN'
TTITLE9=OOOH WOW
TTITLE10=FLIP FLOP AND FLY
TTITLE11=LOVEY DOVEY
EXTD=YEAR: 2001
EXTT0=
EXTT1=
EXTT2=
EXTT3=
EXTT4=
EXTT5=
EXTT6=
EXTT7=
EXTT8=
EXTT9=
EXTT10=
EXTT11=
PLAYORDER=
